HIERARCHY
ROOT Pelvis
{
	OFFSET 0.000000 0.941512 0.000000
	CHANNELS 6 Xposition Yposition Zposition Zrotation Yrotation Xrotation 
	JOINT Pelvis_L_Hip
	{
		OFFSET 0.000000 0.000000 0.000000
		CHANNELS 3 Zrotation Yrotation Xrotation
		JOINT L_Hip
		{
			OFFSET 0.062321 -0.080322 -0.016990
			CHANNELS 3 Zrotation Yrotation Xrotation
			JOINT L_Knee
			{
				OFFSET 0.093051 -0.381305 -0.029784
				CHANNELS 3 Zrotation Yrotation Xrotation
				JOINT L_Ankle
				{
					OFFSET -0.010371 -0.431000 -0.033614
					CHANNELS 3 Zrotation Yrotation Xrotation
					End Site #name: L_Foot
					{
						OFFSET 0.069299 -0.038670 0.119418
					}
				}
			}
		}
	}
	JOINT Pelvis_R_Hip
	{
		OFFSET 0.000000 0.000000 0.000000
		CHANNELS 3 Zrotation Yrotation Xrotation
		JOINT R_Hip
		{
			OFFSET -0.055334 -0.094904 -0.002373
			CHANNELS 3 Zrotation Yrotation Xrotation
			JOINT R_Knee
			{
				OFFSET -0.064207 -0.384370 -0.019592
				CHANNELS 3 Zrotation Yrotation Xrotation
				JOINT R_Ankle
				{
					OFFSET 0.025418 -0.419734 -0.065953
					CHANNELS 3 Zrotation Yrotation Xrotation
					End Site #name: R_Foot
					{
						OFFSET -0.057233 -0.039888 0.132134
					}
				}
			}
		}
	}
	JOINT Pelvis_Spine1
	{
		OFFSET 0.000000 0.000000 0.000000
		CHANNELS 3 Zrotation Yrotation Xrotation
		JOINT Spine1
		{
			OFFSET -0.005562 0.124093 -0.043360
			CHANNELS 3 Zrotation Yrotation Xrotation
			JOINT Spine2
			{
				OFFSET 0.012244 0.139499 0.029894
				CHANNELS 3 Zrotation Yrotation Xrotation
				JOINT Spine3
				{
					OFFSET -0.002556 0.056561 0.009225
					CHANNELS 3 Zrotation Yrotation Xrotation
					JOINT Spine3_Neck
					{
						OFFSET 0.000000 0.000000 0.000000
						CHANNELS 3 Zrotation Yrotation Xrotation
						JOINT Neck
						{
							OFFSET -0.005205 0.217920 -0.024551
							CHANNELS 3 Zrotation Yrotation Xrotation
							End Site #name: Head
							{
								OFFSET 0.002365 0.091850 0.046637
							}
						}
					}
					JOINT Spine3_L_Collar
					{
						OFFSET 0.000000 0.000000 0.000000
						CHANNELS 3 Zrotation Yrotation Xrotation
						JOINT L_Collar
						{
							OFFSET 0.072225 0.116603 -0.009480
							CHANNELS 3 Zrotation Yrotation Xrotation
							JOINT L_Shoulder
							{
								OFFSET 0.115937 -0.058643 -0.021018
								CHANNELS 3 Zrotation Yrotation Xrotation
								JOINT L_Elbow
								{
									OFFSET 0.021994 -0.254722 -0.024492
									CHANNELS 3 Zrotation Yrotation Xrotation
									End Site #name: L_Wrist
									{
										OFFSET 0.048810 -0.240214 0.103329
									}
								}
							}
						}
					}
					JOINT Spine3_R_Collar
					{
						OFFSET 0.000000 0.000000 0.000000
						CHANNELS 3 Zrotation Yrotation Xrotation
						JOINT R_Collar
						{
							OFFSET -0.073372 0.120704 -0.024611
							CHANNELS 3 Zrotation Yrotation Xrotation
							JOINT R_Shoulder
							{
								OFFSET -0.108089 -0.054969 -0.020504
								CHANNELS 3 Zrotation Yrotation Xrotation
								JOINT R_Elbow
								{
									OFFSET -0.033684 -0.260739 0.009889
									CHANNELS 3 Zrotation Yrotation Xrotation
									End Site #name: R_Wrist
									{
										OFFSET -0.067980 -0.232763 0.118463
									}
								}
							}
						}
					}
				}
			}
		}
	}
}
MOTION
Frames: 13
Frame Time: 0.041667
0.000000 0.948379 0.000000 -0.772517 -2.730358 0.293381 0.000000 0.000000 0.000000 -9.341402 -0.050265 -2.390009 9.179475 -1.653984 8.892753 -1.505677 -10.964260 -2.951051 0.000000 0.000000 0.000000 4.954836 -0.897256 3.008732 -7.744849 0.888862 -2.492388 2.608370 11.996751 -1.638046 0.000000 0.000000 0.000000 4.373692 0.705937 -13.215408 -5.163615 6.562763 49.038679 -1.651797 -0.494393 -43.974606 0.000000 0.000000 0.000000 0.005528 -0.723724 25.249112 0.000000 0.000000 0.000000 13.048079 0.193242 2.332313 -4.663872 0.698509 3.832688 -5.331711 -2.506305 -0.672939 0.000000 0.000000 0.000000 -9.506780 -7.232693 6.236275 11.095755 -0.363714 6.105217 0.654698 -0.373986 2.289687 
0.005856 0.947501 -0.001943 -1.377398 -2.472705 0.466425 0.000000 0.000000 0.000000 -8.930869 -0.751194 -4.470622 8.806100 -1.933804 12.284850 -0.965986 -10.600287 -3.649777 0.000000 0.000000 0.000000 5.601506 -0.909074 2.808898 -7.874630 0.896647 -2.577162 2.259502 11.565528 -2.083138 0.000000 0.000000 0.000000 5.414872 0.400529 -11.689399 -5.962421 6.642119 46.487020 -1.223058 0.013279 -42.546924 0.000000 0.000000 0.000000 -0.462158 -0.400196 24.593994 0.000000 0.000000 0.000000 14.078880 -0.490798 2.108290 -6.303826 0.838843 3.939166 -4.570674 -2.385715 -1.491504 0.000000 0.000000 0.000000 -11.137910 -5.506682 5.571902 11.732160 -0.411314 6.355819 0.903010 -0.315037 2.492509 
0.012542 0.946410 -0.001453 -1.795625 -2.279377 0.603628 0.000000 0.000000 0.000000 -8.843218 -1.229095 -5.942500 8.493901 -2.122100 14.808658 -0.430475 -10.376165 -4.407824 0.000000 0.000000 0.000000 5.777054 -0.810571 2.283085 -7.889554 1.005888 -1.766815 1.864488 11.281902 -2.697120 0.000000 0.000000 0.000000 6.008412 0.198427 -10.712941 -6.645045 6.903020 45.617630 -0.817073 0.674309 -42.202329 0.000000 0.000000 0.000000 -0.669747 -0.291130 23.911201 0.000000 0.000000 0.000000 14.197516 -0.570379 2.123380 -6.551334 0.827431 3.740041 -4.211193 -2.358322 -2.000326 0.000000 0.000000 0.000000 -11.632830 -4.169759 4.799092 11.199468 -0.497701 6.589236 1.310731 -0.217419 2.808257 
0.020642 0.945790 0.001650 -1.993922 -2.105327 0.630943 0.000000 0.000000 0.000000 -9.224873 -1.128193 -5.672121 8.669015 -2.138152 14.574243 -0.242063 -10.806227 -4.888421 0.000000 0.000000 0.000000 5.822825 -0.560689 1.124415 -8.194763 1.400791 0.822691 1.105019 10.722615 -3.888366 0.000000 0.000000 0.000000 6.088944 0.120680 -10.218527 -7.178768 7.146899 45.232621 -0.387300 1.361944 -42.155838 0.000000 0.000000 0.000000 -0.547485 -0.443042 24.133459 0.000000 0.000000 0.000000 14.294047 -0.366856 2.329995 -6.522637 0.826071 3.756784 -4.080147 -2.334936 -2.137435 0.000000 0.000000 0.000000 -11.800404 -3.231215 4.191113 10.580862 -0.581464 6.822485 1.277795 -0.312466 3.063351 
0.030587 0.945644 0.006141 -1.858745 -1.694994 0.671155 0.000000 0.000000 0.000000 -10.128610 -0.736473 -4.598520 9.095681 -2.068024 12.984541 -0.225362 -12.040876 -5.414672 0.000000 0.000000 0.000000 5.687578 0.064373 -1.699124 -8.631437 2.338413 6.901819 -0.361264 9.279098 -6.098962 0.000000 0.000000 0.000000 5.465249 0.192134 -10.160214 -7.206136 7.076683 45.125670 -0.139121 1.704038 -42.259005 0.000000 0.000000 0.000000 0.047569 -0.954414 25.130182 0.000000 0.000000 0.000000 14.731404 -0.065021 2.668058 -6.549364 0.867514 4.038770 -4.238418 -2.360092 -1.958762 0.000000 0.000000 0.000000 -11.886375 -3.048751 4.063434 9.907736 -0.581538 6.698068 1.210779 -0.282092 2.858751 
0.041682 0.944876 0.010289 -1.390036 -1.187817 0.565992 0.000000 0.000000 0.000000 -11.380680 -0.246647 -3.340412 9.351058 -1.936112 11.243491 -0.279199 -13.394461 -5.854914 0.000000 0.000000 0.000000 4.991297 1.182056 -6.823521 -8.091349 3.786721 17.893698 -2.000540 6.835561 -8.340133 0.000000 0.000000 0.000000 4.419145 0.274219 -9.750646 -6.957530 6.830381 45.087452 -0.206537 1.610502 -42.321846 0.000000 0.000000 0.000000 1.068419 -1.776292 26.095049 0.000000 0.000000 0.000000 15.321979 0.003985 2.863615 -6.289768 0.901326 4.408911 -4.768218 -2.542294 -1.730333 0.000000 0.000000 0.000000 -11.907036 -3.476167 4.333680 9.130724 -0.518761 6.263236 1.500968 0.331258 1.346890 
0.051504 0.943904 0.014268 -1.117714 -0.945612 -0.061869 0.000000 0.000000 0.000000 -12.225394 0.364176 -1.722035 9.314751 -1.782166 9.848933 -0.432854 -14.170392 -5.909446 0.000000 0.000000 0.000000 4.432151 2.557516 -13.431299 -6.401615 5.192132 32.208133 -2.314802 4.373393 -7.823703 0.000000 0.000000 0.000000 3.616305 0.188171 -8.116922 -6.442597 6.453500 45.025422 -0.717832 1.068271 -42.295048 0.000000 0.000000 0.000000 1.998611 -2.514708 26.997742 0.000000 0.000000 0.000000 15.711920 -0.335697 2.696453 -5.661040 0.904898 4.775062 -5.142345 -2.617449 -1.380132 0.000000 0.000000 0.000000 -11.891897 -4.005959 4.685783 8.497559 -0.392004 5.540181 1.964254 1.402689 -1.217290 
0.058272 0.943769 0.021502 -1.267005 -0.885388 -0.981637 0.000000 0.000000 0.000000 -12.348810 1.131682 0.436383 9.265021 -1.625436 8.448538 -0.545036 -14.639478 -5.912501 0.000000 0.000000 0.000000 4.723938 3.801352 -19.145920 -4.788250 5.790183 42.444365 -1.917296 3.674785 -6.589678 0.000000 0.000000 0.000000 2.989847 0.097545 -6.479068 -5.647196 6.014896 45.583304 -1.252539 0.367681 -42.315251 0.000000 0.000000 0.000000 2.503100 -2.956879 28.373139 0.000000 0.000000 0.000000 16.183922 -1.214399 2.137045 -5.394028 0.921653 5.056299 -4.903036 -2.262380 -0.487981 0.000000 0.000000 0.000000 -12.109565 -4.336883 4.982605 8.513211 -0.296992 5.113234 2.027031 2.224362 -3.540479 
0.062874 0.944670 0.032701 -1.831684 -0.448511 -1.809667 0.000000 0.000000 0.000000 -11.879510 1.875598 2.675092 9.474547 -1.509087 7.082682 -0.794420 -15.364629 -5.786269 0.000000 0.000000 0.000000 5.539656 4.736011 -22.907215 -3.527058 5.149070 43.936764 -2.138767 1.901298 -6.125798 0.000000 0.000000 0.000000 2.781740 0.009901 -5.336010 -5.014254 5.586782 46.067788 -1.441121 -0.221933 -42.205025 0.000000 0.000000 0.000000 2.747674 -3.268805 30.276065 0.000000 0.000000 0.000000 16.212855 -2.191508 1.420527 -5.215440 0.914156 5.107818 -4.239670 -1.602226 0.888128 0.000000 0.000000 0.000000 -12.299204 -4.829672 5.374071 8.601075 -0.375059 5.503200 1.894493 2.588060 -4.806534 
0.065392 0.945579 0.048362 -2.546298 0.195325 -3.106622 0.000000 0.000000 0.000000 -10.848662 2.852439 5.870861 9.491884 -1.334756 5.471908 -1.006668 -16.331387 -5.796226 0.000000 0.000000 0.000000 6.441119 5.159406 -24.151930 -3.181327 4.206959 38.542671 -1.909462 0.565533 -4.834189 0.000000 0.000000 0.000000 2.779188 -0.140467 -3.894536 -4.646398 5.221288 46.085170 -1.279272 -0.605711 -41.827034 0.000000 0.000000 0.000000 3.198470 -3.754469 31.790776 0.000000 0.000000 0.000000 15.480028 -2.784352 0.852553 -4.741721 0.879944 5.126475 -3.520108 -1.030628 1.926856 0.000000 0.000000 0.000000 -12.394166 -5.730802 6.004604 8.458813 -0.564758 6.344952 1.952348 2.702306 -5.039106 
0.067227 0.945193 0.068131 -2.647399 0.742007 -4.209800 0.000000 0.000000 0.000000 -10.479335 3.956543 9.287412 9.702344 -1.170291 3.765267 -0.961146 -17.472763 -6.257981 0.000000 0.000000 0.000000 6.612951 5.263535 -24.518148 -3.622481 3.530491 30.694432 -0.797399 2.263441 -3.334277 0.000000 0.000000 0.000000 2.212961 -0.074483 -3.531346 -4.290863 5.031599 47.408539 -1.128586 -0.940786 -41.784537 0.000000 0.000000 0.000000 3.765003 -4.203562 31.791093 0.000000 0.000000 0.000000 15.126095 -2.917395 0.681477 -4.442482 0.782950 4.564037 -3.423753 -0.923478 2.194020 0.000000 0.000000 0.000000 -12.438047 -7.155367 6.973314 8.212236 -0.744612 7.151179 2.121761 2.654957 -4.625327 
0.069054 0.941594 0.090738 -2.617455 1.585118 -4.797792 0.000000 0.000000 0.000000 -10.375612 4.731077 11.662651 10.153023 -1.144964 3.128033 -0.734652 -18.781475 -7.019308 0.000000 0.000000 0.000000 6.480932 5.313745 -24.969178 -4.207513 2.918277 22.876906 0.719476 3.908761 -0.972680 0.000000 0.000000 0.000000 1.745063 -0.015530 -3.264301 -4.101735 4.812845 48.020088 -1.004629 -1.174351 -41.505905 0.000000 0.000000 0.000000 4.115486 -4.485090 31.494064 0.000000 0.000000 0.000000 14.869603 -3.216017 0.436244 -3.955846 0.650338 3.808526 -4.388834 -1.399648 1.901485 0.000000 0.000000 0.000000 -12.483630 -8.270479 7.721714 8.325359 -0.989546 8.322478 1.853497 2.057991 -3.337113 
0.070243 0.936624 0.116150 -2.454678 2.443249 -4.805190 0.000000 0.000000 0.000000 -10.417616 5.239522 13.177803 10.631018 -1.206080 3.226212 -0.287661 -19.836392 -7.991094 0.000000 0.000000 0.000000 6.066203 5.324316 -25.527842 -4.987490 2.465964 16.144802 2.123602 4.422447 1.789445 0.000000 0.000000 0.000000 1.441676 0.086913 -3.719335 -4.046780 4.697656 48.871247 -0.891418 -1.266841 -41.420482 0.000000 0.000000 0.000000 4.168003 -4.566156 31.474341 0.000000 0.000000 0.000000 14.797362 -3.359509 0.341512 -3.598602 0.483426 2.670071 -5.823262 -2.138749 1.416345 0.000000 0.000000 0.000000 -12.411089 -9.171631 8.280457 8.641414 -1.224319 9.458275 1.072636 0.860856 -0.991289 
